<?xml version="1.0" encoding="UTF-8" standalone="no"?>
<svg xmlns="http://www.w3.org/2000/svg" width="1024" height="1024" viewBox="0 0 1024 1024">
    <path
       style="color:#000000;clip-rule:nonzero;display:inline;overflow:visible;visibility:visible;opacity:1;isolation:auto;mix-blend-mode:normal;color-interpolation:sRGB;color-interpolation-filters:linearRGB;solid-color:#000000;solid-opacity:1;fill:#474647;fill-opacity:1;fill-rule:nonzero;stroke:none;stroke-width:60;stroke-linecap:round;stroke-linejoin:round;stroke-miterlimit:4;stroke-dasharray:none;stroke-dashoffset:0;stroke-opacity:1;color-rendering:auto;image-rendering:auto;shape-rendering:auto;text-rendering:auto;enable-background:accumulate"
       d="m 24,-488 0,976 976,0 0,-976 -976,0 z m 488,313.38731385 c 96.40065103,0 174.61268614,78.212035122 174.61268614,174.61268615 0,0.07891793 -0.001759,0.157526162 -0.001863,0.236419702 36.98786621,7.900745066 71.75954838,18.222425728 103.45967101,30.83042904 l 3.28474425,1.310546876 C 809.35854415,12.625176672 833.80886535,0 861.2253723,0 909.46207542,0 948.53125,39.069174584 948.53125,87.30587771 c 0,48.23670303 -39.06917453,87.30680843 -87.3058777,87.30680843 -48.23670304,0 -87.30680844,-39.07010535 -87.30680844,-87.30680844 0,-8.21386811 1.13498253,-16.161371634 3.2530975,-23.695953384 l -0.0521241,-0.02140814 C 748.34633954,52.120937362 716.71359845,42.584142652 683.05522157,35.220947266 666.75118151,114.75171003 596.33608609,174.61268614 512,174.61268614 c -84.32716669,0 -154.73587712,-59.84841674 -171.04963684,-139.366607636 -33.70274107,7.34410515 -65.30108037,16.93661764 -94.0699005,28.34243772 l -0.0521241,0.02140814 c 2.11811499,7.53458175 3.25309754,15.482085266 3.25309753,23.695953386 0,48.23670304 -39.07010534,87.30680844 -87.30680845,87.30680844 -48.23670313,-5e-8 -87.305877699,-39.0701054 -87.305877699,-87.30680848 C 75.468749971,39.069174584 114.53792454,0 162.77462767,0 c 27.45218855,0 51.93040081,12.658148982 67.9324951,32.454650878 l 3.29498291,-1.315200792 C 264.55929317,18.989330262 298.09990342,8.875688624 333.67720029,1.090881348 L 337.38917538,0.28202821 C 337.38902627,0.18792146 337.38731438,0.09414149 337.38731438,0 c 0,-96.400651028 78.21203513,-174.61268615 174.61268614,-174.61268615 z m 0,34.9230957 c -77.04776561,0 -139.68959045,62.641824837 -139.68959045,139.68959045 0,77.04776562 62.64182484,139.68959044 139.68959045,139.68959044 77.04776562,0 139.68959044,-62.64182482 139.68959044,-139.68959044 0,-77.047765613 -62.64182482,-139.68959045 -139.68959044,-139.68959045 z m 0,69.844329829 A 69.844998838,69.844998838 0 0 1 581.84526063,0 69.844998838,69.844998838 0 0 1 512,69.845260632 69.844998838,69.844998838 0 0 1 442.15473938,0 69.844998838,69.844998838 0 0 1 512,-69.845260621 Z M 162.7746277,34.922164928 c -28.88381771,0 -52.38371278,23.499894962 -52.38371278,52.383712782 0,28.88381767 23.49989507,52.38371273 52.38371278,52.38371273 28.88381768,0 52.38371276,-23.49989506 52.38371275,-52.38371274 2e-8,-28.883817714 -23.49989507,-52.383712772 -52.38371275,-52.383712772 z m 698.4507446,0 c -28.88381768,0 -52.38371274,23.499894914 -52.38371274,52.383712782 0,28.88381767 23.49989506,52.38371273 52.38371274,52.38371273 28.88381771,0 52.38371277,-23.49989506 52.38371277,-52.38371274 0,-28.883817714 -23.49989506,-52.383712772 -52.38371277,-52.383712772 z"
       transform="translate(0,512)"/>
</svg>